<svg width="20" height="20" fill="none" xmlns="http://www.w3.org/2000/svg"><g clip-path="url(#clip0)"><path d="M19.02 6.423l-.228-.592-3.006-2.96L11.139 0 9.363.09 6.036 2.006v.73l-.73-.365-4.054 2.188-.365.456.547 4.145-.454 5.557 3.508 2.232 4.373 2.643.319.409 1.686-.136 2.732-1.731 3.007-1.686 2.506-1.184-.09-8.84zm-1.133 7.825l-.253.294-.314.061-.992.445-.89.375-1.336.679-.457.243-.343.263-.536.262-.932.567-.223.224-.84.628-.324.172h-.274l-.293-.273-.536-.224-.769-.344-.314-.212-.486-.233-.183-.05-.628-.223-.597-.344-.526-.335-.679-.476-.445-.283s-.476-.436-.617-.536a4.541 4.541 0 00-.364-.223l-.497-.416-.556-.456-.01-.324.02-.212v-.163l.021-.192.07-.364.02-.283.091-1.225.03-.151-.02-.111v-.294l.02-.323.02-.385.061-.597-.05-.343v-.122l.02-.172-.009-.78-.03-1.033s-.04-.384-.02-.576c.02-.192.02-.396.02-.396l.03-.364.122-.03.213-.141.192-.152.436-.273-.024.098.081-.07.183-.132.83-.507.556-.283.588-.314.253-.061v-.081l.739-.304-.547.486-.767.418c-.352.096-.911.585-1.094.706-.215.142-.817.815-.817.815s-.102.05-.122.375c-.019.324-.039.95-.039.95l.01.593s.171.93.11 1.236c-.06.303-.05.415-.06.596-.01.183-.02.516-.02.516s-.05.516-.062.617c-.01.102-.01.263-.01.263l.041.323-.02.516-.005.526-.03.224s.01.162.03.253c.02.09-.036.576-.036.576s-.025.274.005.274c.03 0 .253.253.253.253l.355.283.334.283.72.698.596.375.476.263.457.212.323.224.253.232 1.124.547.668.213.568.183.253.162.244.183.576-.303s1.033-.608 1.245-.76c.213-.151 1.074-.547 1.255-.628.181-.081.556-.243.75-.314.192-.07.608-.303.608-.303l.922-.506.497-.253.73-.294.424-.131.172-.05.05-.193.081-.465.01-.244.122-1.119.131 1.736-.012.528z" fill="#354F57"/><path d="M19.02 6.423l-.228-.592-3.006-2.96L11.139 0 9.363.09 6.036 2.006v.73l-.73-.365-4.054 2.188-.365.456.547 4.145-.454 5.557 3.508 2.232 4.373 2.643.319.409 1.686-.136 2.732-1.731 3.007-1.686 2.506-1.184-.09-8.84zm-1.13 7.825l-.254.294-.314.061-.992.445-.89.375-1.337.679-.456.243-.344.263-.536.262-.931.567-.223.224-.841.628-.324.172h-.273l-.294-.273-.536-.224-.768-.344-.315-.212-.485-.233-.183-.05-.628-.223-.597-.344-.527-.335-.678-.476-.445-.283s-.477-.436-.617-.536c-.143-.101-.365-.223-.365-.223l-.496-.416-.557-.456-.009-.324.02-.212v-.163l.02-.192.07-.364.021-.283.09-1.225.03-.151-.02-.111v-.294l.02-.323.02-.385.062-.597-.05-.343v-.122l.02-.172-.01-.78L2.94 6.76s-.04-.384-.02-.576c.02-.192.02-.396.02-.396l.03-.364.122-.03.212-.141.192-.152.436-.273-.025.098.081-.07.183-.132.83-.507.556-.283.588-.314.253-.061v-.081l.445-.183a.373.373 0 01.067-.063c1.025-.693 2.108-1.406 3.341-1.648a.281.281 0 01.323.16c2.29 1.674 4.486 3.471 6.764 5.16a.29.29 0 01.125.228.277.277 0 01.111.264c-.032.318-.062.636-.087.957.01 1.275.214 2.54.26 3.815l.021-.181.131 1.736-.009.526z" fill="#7A7A50"/><g filter="url(#filter0_d)"><path d="M14.244 8.767l-.403-.537-.322-.511-.135-.375-.242-.322-.134-.242-1.02-.403-1.047-.161-.672-.296-.913.188-.806.403-.94.377-.512 1.236-.295.59-.134.43-.242.645-.135.538-.16.376.777.188.377.107.187.082.322.134.216.161.027.833.053.456.134.43.16.483.082.295.456.081.483.027.913.053.59-.081.618-.027.456-.053.376-.108.161-.348v-1.263l.082-.322v-.134l.482-.322.511-.483.511-.43.322-.295.188-.215-.372-1.185zM8.956 10.25l-.853-.46-.262-.36v-.591l.262-.557.46.099.59.492.394.623.033.985-.624-.232zm1.89 2.303l-.834.133-.332-.033.267-.633.067-.7.1-.333.3-.233.333.7.133.7-.035.399zM13.01 9.71l-.731.366-1.063.232-.033-.764.333-.664.797-.465.897-.067.067.83-.267.532z" fill="#F7EA8C"/></g></g><defs><clipPath id="clip0"><path fill="#fff" d="M0 0h20v20H0z"/></clipPath><filter id="filter0_d" x="-3.869" y="-4.08" width="28.484" height="28.113" filterUnits="userSpaceOnUse" color-interpolation-filters="sRGB"><feFlood flood-opacity="0" result="BackgroundImageFix"/><feColorMatrix in="SourceAlpha" values="0 0 0 0 0 0 0 0 0 0 0 0 0 0 0 0 0 0 127 0"/><feOffset/><feGaussianBlur stdDeviation="5"/><feColorMatrix values="0 0 0 0 0 0 0 0 0 0 0 0 0 0 0 0 0 0 1 0"/><feBlend in2="BackgroundImageFix" result="effect1_dropShadow"/><feBlend in="SourceGraphic" in2="effect1_dropShadow" result="shape"/></filter></defs></svg>