<svg width="15" height="15" fill="none" xmlns="http://www.w3.org/2000/svg"><path d="M14.284 4.795c-.194-.631-.857-1.047-1.284-1.47l-1.13-1.16c-.66-.477-1.405-.807-2.1-1.237C9.076.498 8.875.315 7.98 0c-.158.1-.965.025-1.13.115-.498.272-1.054.58-1.556.888-.262.162-.538.409-.857.502v.541c-.183-.09-.362-.18-.545-.272-.34.333-.904.448-1.32.702-.537.323-1.19.563-1.714.928-.11.075-.154.23-.272.308.004.556.086 1.075.194 1.548.114.498.093 1.014.193 1.47.061.275-.028.666-.079.888-.104.484-.021.99-.118 1.43-.093.434.022 1.573-.154 1.856.043.348 1.137.846 1.441 1.043 1.126.735 2.313 1.455 3.464 2.164.402.248 1.069.427 1.244.889.456-.025.908-.05 1.363-.079.147-.05.301-.23.427-.308.541-.337 1.068-.68 1.595-1.007.22-.136.442-.175.664-.308a31.32 31.32 0 013.503-1.817c-.01-2.225-.025-4.454-.04-6.686zm-7.86 1.702c.358-.688.39-1.606.663-2.437.118-.366.33-.753.427-1.082.068-.025.04-.007.079-.04.122.068.064.187.154.273.1.093.262.132.351.233.158.172.176.508.273.734.24.56.548 1.165.624 1.896.703.358 1.746.552 2.567.734.025.122.054.298.119.387-.176.144-.43.14-.664.233-.459.187-.982.394-1.441.58-.22.09-.46.094-.624.234-.33.408-.524 1.967-.7 2.59-.075.266-.025.563-.154.774 0 .194-.007.233-.118.309-.05.04-.047-.007-.118.04-.302-.044-.384-.581-.506-.814-.377-.717-1.011-2.079-1.05-3.057L4.01 7.622c-.365-.136-.684-.44-1.09-.541v-.04h.04c.129-.243.552-.114.857-.193.742-.19 1.653-.376 2.607-.351zm6.967 4.217c-.079.172-.273.158-.466.233-.445.165-.897.38-1.363.58-.588.255-1.154.646-1.674.968-.176.108-.37.126-.545.233-.27.165-.499.405-.74.58-.264.194-.573.323-.817.542-.287-.025-.222-.136-.39-.233-.323-.187-.685-.212-1.012-.387-.068-.036-.132-.154-.193-.194-.449-.28-1.098-.369-1.557-.655-.645-.405-1.233-.886-1.868-1.316-.287-.197-.516-.505-.817-.695 0-.405.043-.73.118-1.042v-.549c.118-.505.107-1.304.154-1.817.007-.068-.04-.293-.04-.426 0-.824-.085-1.655 0-2.437.273-.05.406-.272.625-.387.147.05.398-.218.545-.308.326-.2.663-.315 1.01-.501.062-.036.13-.133.194-.158.201-.079.363-.108.506-.233h.04c-.234.351-.639.401-1.012.62-.333.193-1.154.806-1.283 1.16-.169.266-.112 1.144-.04 1.47.176.785-.046 1.867-.04 2.63.004.301.033 1.115-.039 1.237-.014.752.513.956.933 1.275l.351.387c.344.251.753.348 1.13.58.398.244.781.578 1.244.775.323.09.649.179.972.272.118.061.2.186.351.233.212.075 1.14-.591 1.363-.735.473-.304 1.01-.458 1.556-.695l1.556-.849c.305-.133.714-.158.972-.348.158-.215.165-.817.154-1.16.108.16.01.523.118.694v.656h.004z" fill="#5E83A5"/></svg>