<svg width="14" height="14" fill="none" xmlns="http://www.w3.org/2000/svg"><path d="M1.308 2.74c-.005.006-.008.015-.008.027a.213.213 0 00-.009.06 1.585 1.585 0 01-.052.097 1.02 1.02 0 01-.079.104c-.04.052-.078.104-.113.157-.018.022-.035.047-.053.07a.085.085 0 00-.008.034.084.084 0 00-.018.026.085.085 0 01-.008.035.085.085 0 00-.01.035c-.017.022-.03.043-.043.06a.9.9 0 00-.157.296c-.005.013-.012.023-.017.035 0 .012-.004.021-.009.026v.035l-.017.035a.085.085 0 01-.01.035.085.085 0 00-.008.035.214.214 0 00-.009.06c-.005.013-.012.023-.017.035-.005.012-.012.023-.018.035a.084.084 0 00-.017.026l-.017.035a.085.085 0 00-.01.035c0 .012-.003.02-.008.026v.035c-.005.012-.012.022-.017.035-.006.012-.013.022-.018.034a.084.084 0 01-.017.026c-.005.013-.012.023-.018.035v.035a.085.085 0 00-.008.035.085.085 0 00-.01.035.084.084 0 00-.017.026.085.085 0 01-.008.035.085.085 0 00-.009.034.114.114 0 01-.026.035.084.084 0 00-.018.026.085.085 0 00-.008.035c-.006.012-.013.023-.018.035a.085.085 0 01-.008.035.084.084 0 00-.018.026c-.005.012-.012.022-.017.035-.006.012-.013.022-.018.034a.085.085 0 00-.009.035.084.084 0 00-.017.026.085.085 0 01-.009.035v.096c-.012.035-.022.07-.035.104-.012.04-.026.084-.043.13a2.7 2.7 0 01-.061.192l-.035.096v.165a.317.317 0 00-.009.07.214.214 0 00-.009.06c-.005.013-.012.023-.017.036l-.017.034a.084.084 0 00-.018.026c-.005.013-.012.023-.017.035v.13a.317.317 0 00-.01.07c0 .03-.008.061-.025.096A.085.085 0 010 6.291v.261c.005.005.009.014.009.026l.017.035v.035a.085.085 0 01.009.034c0 .018.003.039.009.061v.07c.012.03.02.06.026.096.005.03.012.06.017.095V7.3c.005.012.012.021.018.026l.017.035c0 .012.004.023.009.035a.085.085 0 01.009.035c.005.012.012.022.017.035 0 .005.003.013.009.026 0 .012.003.022.008.034v.261a.085.085 0 01.01.035c.004.012.011.023.017.035 0 .005.003.014.008.026 0 .012.004.023.01.035v.331l.017.06.017.07c0 .018.003.038.009.061v.166a.085.085 0 01.008.034.084.084 0 01.018.026c0 .012.003.023.009.035 0 .012.003.023.008.035v.13a.085.085 0 01.009.035.084.084 0 01.017.026c0 .012.004.023.01.035 0 .012.003.023.008.035v.356a.085.085 0 01.009.035c.005.013.012.023.017.035 0 .005.004.014.009.026 0 .013.003.023.009.035v.07c.005.005.008.014.008.026.005.012.012.022.018.035v.034a.085.085 0 01.008.035c0 .018.004.039.01.061v.07c0 .005.003.014.008.026 0 .012.005.023.017.035.006.012.013.022.018.035a.086.086 0 01.008.034.084.084 0 01.018.026c0 .013.003.023.009.035 0 .012.003.023.008.035v.061c0 .012.004.022.01.035 0 .012.003.022.008.034.005.013.012.021.017.027.005.012.012.022.018.034.005.013.012.023.017.035v.035c.005.012.009.02.009.026 0 .012.003.023.009.035a.085.085 0 01.008.035c.006.012.013.022.018.035l.017.034a.084.084 0 01.018.026c.005.013.012.023.017.035l.018.07a.084.084 0 01.017.026l.017.07.018.06.017.07c.006.012.013.023.018.035.012.005.02.014.026.026 0 .012.003.023.009.035.005.012.012.022.017.035.005.012.012.022.018.034.012.006.02.014.026.026.012.013.02.023.026.035l.035.035a.318.318 0 00.043.035.084.084 0 01.018.026l.035.035.017.035c.005.012.012.022.018.035a.113.113 0 01.035.026.114.114 0 00.026.034l.035.035a.114.114 0 00.026.035c.012.017.026.038.043.06.006.013.013.023.018.036a.085.085 0 01.009.034.084.084 0 01.017.027.114.114 0 00.026.034l.052.035.053.035a.113.113 0 01.035.026l.035.035.034.035c.018.012.035.02.053.026l.07.035.052.034a.78.78 0 00.078.07.335.335 0 01.062.061 1 1 0 00.113.096l.052.034.035.035.035.035.026.026.035.035a.511.511 0 01.079.026c.022.005.043.012.06.018l.053.034a.318.318 0 01.044.035.113.113 0 01.034.026.318.318 0 01.044.035c.012.012.021.023.026.035.012.012.023.02.035.026a.318.318 0 00.044.035c.022.012.047.022.07.035l.052.034a.318.318 0 01.043.035c.03.018.056.038.079.061l.07.035c.022.012.043.022.06.035a.103.103 0 01.044.026.317.317 0 01.044.035c.012.005.021.014.026.026.023.005.044.012.061.017l.053.035c.017.012.035.02.052.026l.052.035.053.035.035.034c.022.013.043.023.06.035a.1.1 0 01.044.026c.047.023.093.049.14.079.03.017.056.038.078.06l.061.061a.317.317 0 00.044.035.113.113 0 01.035.026l.035.035.07.035c.022.012.043.023.06.035a.103.103 0 01.044.026.325.325 0 01.044.035.292.292 0 01.07.026c.022.005.043.012.06.017l.053.035c.017.012.035.02.052.026.006.012.014.02.026.026a.216.216 0 00.062.009l.052.017c.023.005.043.012.06.018l.053.034c.018.013.035.021.053.027.005.012.014.02.026.026a.75.75 0 01.34.174l.035.035c.023.005.049.012.078.017.023.005.05.012.079.017.808 0 1.619.004 2.434.009a4.75 4.75 0 01.261-.06c.157-.03.318-.04.48-.027.052-.012.105-.026.157-.043a.553.553 0 01.122-.027.497.497 0 00.2-.06.16.16 0 01.044-.01l.061-.017a.287.287 0 00.061-.008l.123-.018a.1.1 0 01.043-.026.027.027 0 01.018-.009c.017-.005.031-.012.043-.017l.07-.017c.023-.012.044-.023.061-.035.018-.005.031-.012.044-.018a.466.466 0 00.174-.07c.04-.029.082-.06.122-.095a.94.94 0 01.157-.078l.079-.061a.376.376 0 01.183-.061c.057-.012.117-.03.174-.052.145-.105.302-.195.471-.27a3.45 3.45 0 00.506-.27.396.396 0 01.079-.06c.03-.023.06-.048.096-.07.047-.035.092-.066.14-.096a.113.113 0 00.025-.035c.006-.012.013-.022.018-.035a.113.113 0 00.026-.034.114.114 0 00.026-.035.048.048 0 00.026-.026l.14-.105c.058-.052.113-.104.166-.156a.27.27 0 01.078-.07h.009l.017-.035a.048.048 0 00.027-.026l.034-.035c.013-.022.023-.043.035-.06a.279.279 0 01.027-.07.34.34 0 01.052-.096l.113-.165a.086.086 0 00.009-.035.082.082 0 01.018-.026c0-.012.003-.023.008-.035.005-.012.012-.022.018-.035a.114.114 0 00.026-.034.116.116 0 00.026-.035.048.048 0 00.026-.026.114.114 0 01.026-.035c0-.012.004-.023.009-.035 0-.012.004-.02.009-.026a.116.116 0 01.026-.035l.017-.035a.086.086 0 00.01-.035.086.086 0 01.016-.026c0-.012.004-.022.01-.034.005-.013.011-.023.017-.035 0-.012.003-.023.008-.035 0-.012.004-.02.01-.026 0-.012.003-.023.008-.035.005-.012.012-.022.017-.035 0-.012.004-.022.009-.034 0-.013.004-.021.009-.027 0-.012.003-.022.008-.034.006-.013.013-.023.018-.035a.114.114 0 00.026-.035c0-.012.004-.02.009-.026a.114.114 0 01.026-.035l.017-.035a.084.084 0 00.01-.035.084.084 0 01.017-.026c0-.012.003-.022.008-.034.006-.013.013-.023.018-.035a.114.114 0 00.026-.035c0-.012.003-.023.009-.035v-.026a.086.086 0 00.008-.035c0-.012.004-.022.01-.035 0-.012.003-.02.008-.026 0-.012.003-.022.008-.034.006-.013.013-.023.018-.035a.115.115 0 00.026-.035.113.113 0 00.026-.035.048.048 0 00.027-.026.32.32 0 00.043-.035.114.114 0 01.026-.035.048.048 0 01.026-.026c.006-.012.013-.022.018-.034 0-.013.003-.023.009-.035 0-.012.003-.023.008-.035.006-.012.013-.023.018-.035a.084.084 0 00.017-.026c.005-.012.012-.023.018-.035a.113.113 0 00.026-.035c0-.012.003-.02.009-.026a.086.086 0 00.008-.035c.006-.012.013-.022.018-.034 0-.013.003-.023.008-.035 0-.012.004-.021.01-.026a.113.113 0 01.025-.035c.006-.012.013-.023.018-.035a.086.086 0 00.008-.035.084.084 0 01.018-.026c0-.012.004-.022.009-.035l.017-.034a.114.114 0 00.026-.035c0-.012.004-.023.009-.035v-.026a.084.084 0 00.009-.035c0-.012.003-.023.008-.035 0-.012.004-.02.01-.026 0-.012.003-.022.008-.035l.017-.034a.113.113 0 00.027-.035.114.114 0 01.034-.026c0-.012.004-.023.01-.035.004-.012.011-.023.017-.035a.115.115 0 00.026-.035.084.084 0 01.017-.026c.005-.012.012-.022.018-.035 0-.012.003-.022.008-.034 0-.013.004-.023.01-.035a.048.048 0 01.025-.026.113.113 0 01.026-.035.114.114 0 00.027-.035.115.115 0 00.026-.035.338.338 0 00.06-.06.027.027 0 00.01-.018v-.009-.026-.035-.034-.035a.086.086 0 00.008-.026c.005-.013.013-.023.018-.035 0-.012.003-.023.008-.035 0-.012.004-.023.01-.035a.048.048 0 01.025-.026c.006-.012.013-.023.018-.035 0-.005.003-.012.008-.017A7.67 7.67 0 0014 7.135c0-.204-.005-.4-.017-.592a2.88 2.88 0 01-.018-.017l-.017-.035c-.006-.017-.013-.038-.018-.06l-.017-.07V6.3v-.096-.07a.085.085 0 01-.009-.035.088.088 0 01-.009-.026l-.017-.034a.086.086 0 00-.009-.035v-.035-.026-.035-.035-.035-.026a.085.085 0 01-.009-.035.113.113 0 00-.026-.034l-.017-.035a.088.088 0 01-.009-.026.086.086 0 01-.009-.035.084.084 0 01-.008-.035c-.006-.012-.013-.022-.018-.035a.084.084 0 00-.017-.026c-.005-.012-.012-.022-.018-.035l-.017-.034a.51.51 0 00-.044-.07.048.048 0 01-.026-.026.086.086 0 01-.009-.035.084.084 0 01-.008-.035.084.084 0 00-.018-.026.086.086 0 00-.008-.035v-.034-.035-.026-.035-.035a.084.084 0 01-.01-.035.086.086 0 00-.017-.026c-.005-.012-.012-.022-.017-.035a.085.085 0 01-.009-.034.086.086 0 01-.009-.035.084.084 0 00-.017-.026.084.084 0 00-.009-.035v-.035a.086.086 0 01-.008-.035.084.084 0 00-.018-.026c-.005-.012-.012-.022-.017-.035a.086.086 0 01-.01-.034.086.086 0 01-.008-.035.082.082 0 00-.017-.026.084.084 0 00-.009-.035v-.035a.086.086 0 01-.009-.035.084.084 0 00-.017-.026.115.115 0 00-.026-.035.114.114 0 00-.027-.034c-.005-.013-.012-.023-.017-.035-.012-.018-.023-.039-.035-.061l-.017-.035c-.023-.012-.044-.023-.061-.035a.32.32 0 00-.044-.035.048.048 0 01-.026-.026.115.115 0 01-.026-.034.313.313 0 00-.044-.035.048.048 0 00-.026-.026.113.113 0 00-.026-.035.115.115 0 00-.026-.035c-.006-.012-.013-.023-.018-.035a.086.086 0 01-.009-.026.086.086 0 01-.008-.035.086.086 0 01-.009-.035c-.005-.012-.012-.022-.018-.034a.088.088 0 01-.008-.026.086.086 0 01-.009-.035.086.086 0 01-.009-.035l-.017-.035a.088.088 0 01-.009-.026.086.086 0 01-.008-.035.088.088 0 01-.01-.026.114.114 0 01-.025-.035.048.048 0 01-.027-.026.086.086 0 01-.008-.035.086.086 0 01-.009-.034 1.188 1.188 0 00-.21-.21.851.851 0 01-.209-.208 1.398 1.398 0 00-.218-.235 1.143 1.143 0 01-.174-.2c-.005-.005-.009-.014-.009-.026l-.035-.035a.335.335 0 01-.06-.06l-.036-.036a.114.114 0 00-.026-.034.344.344 0 01-.052-.07c-.005-.005-.009-.014-.009-.026a.729.729 0 00-.07-.061.72.72 0 00-.13-.13l-.14-.105a.048.048 0 00-.026-.026.113.113 0 00-.027-.035 6.09 6.09 0 01-.244-.148 3.12 3.12 0 01-.314-.226.913.913 0 01-.148-.148.716.716 0 01-.061-.07.729.729 0 01-.07-.06l-.07-.07a.338.338 0 01-.06-.061.664.664 0 00-.105-.087c-.013-.005-.027-.012-.044-.017l-.122-.053-.052-.034a.048.048 0 01-.027-.027.113.113 0 01-.026-.034.323.323 0 00-.043-.035.727.727 0 01-.07-.061L9.83.835a.393.393 0 01-.079-.06C9.722.761 9.696.751 9.674.74 9.65.727 9.626.717 9.604.705 9.592.7 9.578.693 9.56.687a.886.886 0 01-.235-.104 15.375 15.375 0 01-.253-.148 9.832 9.832 0 01-.166-.113.048.048 0 01-.026-.026C8.85.284 8.824.273 8.8.26 8.79.256 8.78.249 8.766.244A7.395 7.395 0 006.847 0a7.21 7.21 0 00-1.195.096 5.71 5.71 0 01-.331.078l-.052.035c-.018.005-.032.012-.044.017a.16.16 0 01-.044.009L5.13.252a.32.32 0 00-.07.009 1.547 1.547 0 00-.166.026C4.881.292 4.867.3 4.85.305a.028.028 0 01-.018.008.285.285 0 01-.07.026.101.101 0 01-.043.026.101.101 0 01-.044.027.028.028 0 01-.017.008c-.018.005-.031.012-.044.018l-.07.017c-.017.012-.038.023-.06.035-.023.012-.048.022-.07.035C4.4.51 4.388.517 4.37.522a.028.028 0 01-.017.009c-.018.005-.032.012-.044.017l-.07.018c-.017.012-.038.022-.06.034-.018.006-.032.013-.044.018L4.1.653l-.053.034C4.03.693 4.016.7 4.004.705a.285.285 0 01-.07.026.114.114 0 00-.026.035.114.114 0 00-.035.026l-.035.035-.052.034c-.023.013-.047.023-.07.035a.184.184 0 00-.052.026.985.985 0 01-.105.105.489.489 0 01-.183.095 1.943 1.943 0 01-.157.061l-.07.07a.114.114 0 00-.026.035.727.727 0 00-.07.06.791.791 0 01-.079.07.285.285 0 00-.07.026c-.022.013-.046.023-.07.035l-.034.035a.101.101 0 01-.044.026c-.017.012-.038.023-.06.035l-.07.035a.393.393 0 01-.079.06c-.03.023-.058.048-.087.07a.873.873 0 01-.14.087l-.07.035-.034.035-.027.026-.017.035a.337.337 0 01-.061.06.726.726 0 01-.061.07l-.052.035c-.018.005-.032.012-.044.017a.184.184 0 01-.052.027.318.318 0 00-.044.034.184.184 0 00-.052.026l-.053.035a.114.114 0 00-.026.035.114.114 0 01-.035.026.317.317 0 00-.043.035l-.035.035c-.006.012-.013.022-.018.035a.319.319 0 00-.043.034.101.101 0 00-.044.026.318.318 0 00-.044.035.748.748 0 01-.104.13c-.005.013-.012.023-.018.036a.114.114 0 01-.026.034c-.005.006-.009.013-.009.018zm3.22-.39c-.297.283-.56.521-.786.713a4.9 4.9 0 00-.628.618c-.047.07-.096.135-.148.2a.16.16 0 01-.009.043c-.012.012-.017.023-.017.035l-.027.026a.084.084 0 01-.017.026.318.318 0 01-.044.035c-.022.03-.047.06-.07.096a.084.084 0 01-.017.026l-.009.017a.183.183 0 00-.026.052c0 .013-.003.021-.009.027a.159.159 0 00-.008.043l-.018.017a.087.087 0 01-.008.027.316.316 0 01-.035.043c0 .012-.006.026-.018.044l-.017.052c-.012.012-.018.022-.018.035l-.008.008a.09.09 0 01-.018.035.083.083 0 01-.035.044.09.09 0 01-.017.052.088.088 0 01-.009.026v.035c-.005.017-.012.031-.017.043-.013.018-.018.03-.018.035a.1.1 0 01-.026.043V4.951a.1.1 0 00-.026.043.3.3 0 00-.018.053l-.017.034v.114a.795.795 0 01-.061.139.499.499 0 01-.061.104.439.439 0 00-.009.07v.035a.317.317 0 00-.009.07.63.63 0 01-.008.086c-.012.005-.021.018-.026.035a.183.183 0 00-.027.052v.044a.084.084 0 01-.017.026c-.005.017-.012.038-.017.06a.183.183 0 01-.027.053.317.317 0 01-.008.07c-.006.022-.013.048-.018.078a.902.902 0 01-.035.113.183.183 0 01-.026.052v.035a.085.085 0 00-.009.035l.018.017c0 .03-.004.052-.009.07 0 .017-.003.04-.009.07a.107.107 0 01-.008.043c0 .012-.006.02-.018.026a.107.107 0 01-.008.043.159.159 0 00-.01.044.114.114 0 00-.025.035.107.107 0 01-.01.043c0 .012.004.021.01.026 0 .013-.006.023-.018.035a.107.107 0 01-.009.044v.043c0 .005.004.012.01.018v.043c-.013.005-.018.014-.018.026a.265.265 0 00-.009.052.408.408 0 010 .114c.005.012.009.02.009.026v.043c.005 0 .008.004.008.009 0 .012.004.02.01.026 0 .005.004.014.017.026a.272.272 0 01.017.087.243.243 0 010 .087l.018.157v.06l.017.018c-.005.005-.005.014 0 .026.005.005.009.012.009.018l.017.034v.044c0 .03.004.052.009.07a.346.346 0 01.009.078.482.482 0 01.052.13c.005.005.005.012 0 .018.005 0 .012.003.017.008 0 .018.004.03.01.035.004.005.008.014.008.026a.084.084 0 01.017.026c0 .013.005.027.018.044l.008.017c0 .012.004.023.01.035-.006 0-.006.009 0 .026v.026c.004.006.011.012.017.018l.017.017c0 .005.004.012.009.018 0 .012.003.02.008.026v.026l.01.026a.085.085 0 01.008.035l.017.017c-.005.012-.005.02 0 .026l.018.018c0 .012.003.02.009.026.005.005.008.014.008.026.005.005.009.014.009.026v.035c-.005 0-.005.005 0 .017 0 .005.003.012.009.017 0 .018.003.03.008.035l.018.018c0 .012.003.02.009.026v.052c.005.012.012.02.017.026 0 .005.004.014.009.026.005.005.008.012.008.018.006.012.013.02.018.026l.017.017.01.009c.011.03.022.055.034.078a.35.35 0 00.035.105c.017.04.035.083.052.13a.368.368 0 00.053.096l.008.017.018.018.035.034a.259.259 0 00.026.044.114.114 0 00.026.035v.026c.005.012.009.02.009.026v.026c0 .012.003.02.008.026l.035.035a.114.114 0 00.026.035c.006.022.014.04.027.052a.187.187 0 01.034.06l.018.018c0 .005.003.012.009.018l.017.017c.005.012.012.017.018.017a.084.084 0 01.017.027.343.343 0 01.026.034l.035.035c.005.005.009.012.009.018.005.005.014.008.026.008l.017.018a.084.084 0 01.018.026.256.256 0 01.043.026.338.338 0 01.027.035.51.51 0 01.122.087c.022.03.049.06.078.095l.061.079h.026c.013.012.021.017.027.017l.017.009.018.017a.086.086 0 00.034.009l.018.017c.005.005.014.009.026.009a.028.028 0 01.009.017l.017.018.018.017a.084.084 0 01.017.026l.035.035a.114.114 0 00.026.035l.018.017c.012 0 .017.004.017.009l.018.017a.084.084 0 00.026.018c.012.012.02.022.026.035.005 0 .012.003.017.008a.319.319 0 00.035.044c.012.012.021.022.026.035a.634.634 0 01.053.06.113.113 0 01.035.027c.017.012.031.02.043.026.005.012.018.022.035.034a.635.635 0 00.052.061.352.352 0 01.027.035c.012 0 .02.004.026.009.005.005.014.009.026.009l.017.017c.006.005.014.009.027.009 0 .005.003.012.008.017l.018.017.017.018c.005.012.012.02.018.026.012.005.02.012.026.018l.017.008c.005 0 .012.004.018.009a.086.086 0 00.026.017c.012.012.02.023.026.035a.312.312 0 01.035.044l.026.026a.634.634 0 00.052.06c.013.013.021.023.027.035.005 0 .012.004.017.01.012.004.023.011.035.017.005 0 .012.003.017.008.006.012.013.018.018.018l.017.017.018.017.008.018c.006.005.014.008.027.008l.017.018c.012.005.02.014.026.026.012.005.021.012.026.017a.318.318 0 00.035.044c.005 0 .014.005.026.017.006.006.014.009.027.009.012 0 .02.004.026.009l.017.008c.005.006.014.01.026.01l.018.016a.084.084 0 00.026.018l.017.017c0 .005.004.012.01.018.004.005.013.008.025.008.006.013.013.018.018.018l.017.009a.085.085 0 00.035.008c.005.005.014.009.026.009a.086.086 0 01.018.026l.008.009.018.017c.012 0 .02.005.026.018.012.005.021.008.026.008.012.005.021.009.026.009.013.005.021.009.027.009.012.005.02.008.026.008a.1.1 0 00.043.026c.006.006.014.01.026.01.018.017.032.029.044.034.012.012.023.017.035.017.017.018.035.03.052.035a.086.086 0 00.026.018h.018l.017.017c.013 0 .023.003.035.009a.086.086 0 00.026.017c.006-.005.014-.005.027 0 .012 0 .02.004.026.009h.078c.006 0 .013.003.018.008h.043c.006 0 .014.004.027.01a.084.084 0 00.026.017c.005-.006.014-.006.026 0h.07a.086.086 0 00.035.008c.012.005.03.013.052.018.005 0 .014.005.026.017.005 0 .012.004.017.009h.018a.086.086 0 00.035.008h.052a.16.16 0 00.044-.008H6.34a.108.108 0 00.044-.009.184.184 0 00.052-.009.184.184 0 01.053-.008.35.35 0 00.078.008.08.08 0 01.061.01.71.71 0 00.105-.01c.017 0 .031.004.044.01a.16.16 0 01.043-.01c.012 0 .023.004.035.01.005-.006.014-.01.026-.01a.086.086 0 00.035.01.131.131 0 01.061-.018.058.058 0 01.044-.018c.017-.005.031-.012.043-.017H7.1c.013 0 .023.003.035.009a.16.16 0 01.044-.01c.012 0 .022.004.035.01h.026a.16.16 0 00.043-.01.184.184 0 00.053-.008.18.18 0 01.052-.008h.114c.017-.006.034-.013.052-.018a.261.261 0 01.052-.009.04.04 0 01.035 0 .107.107 0 01.044-.008c.005 0 .012.003.017.008a.107.107 0 00.053-.026.16.16 0 00.043-.008.041.041 0 00.035 0 .18.18 0 01.052-.01.107.107 0 01.044-.008.086.086 0 00.035.009.18.18 0 01.052-.009h.044a.566.566 0 01.113-.026.155.155 0 01.07 0 .155.155 0 01.07 0h.026a.157.157 0 01.044-.009c.012 0 .022.004.034.01l.062-.018a.157.157 0 01.043-.009h.035a.157.157 0 01.044-.009.09.09 0 01.052-.017.089.089 0 00.035-.018.18.18 0 00.052-.008.18.18 0 00.053-.009.027.027 0 00.017.009.27.27 0 01.044-.026l.034-.018c.018-.005.032-.012.044-.017a.058.058 0 00.044-.018.061.061 0 00.043 0h.026l.053-.017a.25.25 0 01.096-.017.309.309 0 01.122-.026h.043a.302.302 0 01.053-.018.106.106 0 01.052-.026c.454-.388.91-.774 1.37-1.157.034-.052.075-.108.122-.165a.848.848 0 01.253-.227.908.908 0 01.07-.104.343.343 0 01.06-.078.382.382 0 00.08-.131.084.084 0 01.025-.017c0-.018.005-.03.018-.035a.101.101 0 00.026-.044.732.732 0 00.06-.07c0-.005.006-.017.018-.034-.005-.005-.005-.012 0-.018a.084.084 0 00.026-.017.09.09 0 01.018-.035l.026.026c-.012.018-.017.032-.017.044l-.018.113a.522.522 0 01-.07.13.084.084 0 01-.017.027c-.005.017-.012.038-.017.06a.318.318 0 00-.035.044.084.084 0 00-.018.026c0 .005-.003.012-.009.018a.086.086 0 00-.008.034.398.398 0 00-.061.079.112.112 0 01-.035.026.259.259 0 00-.026.043.085.085 0 00-.018.026.488.488 0 01-.096.13.76.76 0 01-.052.08.479.479 0 01-.079.104 1.5 1.5 0 00-.261.252 1.23 1.23 0 00-.131.174c-.476.395-.954.792-1.43 1.192a.226.226 0 00-.053.035.106.106 0 00-.052.026.108.108 0 00-.044-.009c-.04.005-.084.014-.13.026a.572.572 0 00-.105.026.183.183 0 00-.053.026c-.012 0-.02-.003-.026-.008a.108.108 0 01-.044.008.16.16 0 01-.043.01c-.018.004-.032.011-.044.017-.017.005-.031.012-.043.017a.1.1 0 01-.044.026h-.026a.108.108 0 00-.044.009.184.184 0 00-.052.009.078.078 0 00-.044.017.09.09 0 00-.052.017h-.044c-.012-.005-.026-.003-.043.009h-.053l-.052.017H8.077a.16.16 0 01-.043.01l-.07-.018a.35.35 0 00-.079.008.76.76 0 00-.122.027h-.035l-.052.017h-.035a.09.09 0 00-.052 0 .108.108 0 00-.044.009.184.184 0 00-.052.008.108.108 0 00-.044.009.12.12 0 00-.052.017c-.005-.005-.012-.005-.018 0a.108.108 0 01-.043-.008.078.078 0 00-.044.017H7.24c-.023.005-.044.012-.061.018a.32.32 0 00-.07.008h-.096l-.061.018a.085.085 0 01-.035-.01.085.085 0 01-.035.01.183.183 0 01-.035-.01H6.77a.16.16 0 00-.044.01.108.108 0 00-.043.008.16.16 0 00-.044.009c-.023.012-.044.023-.061.035a.086.086 0 00-.035-.009h-.035a.086.086 0 00-.035-.009H6.43a.061.061 0 01-.044 0 .245.245 0 01-.113.01.32.32 0 00-.07-.01.195.195 0 01-.079 0 .184.184 0 00-.052.01.18.18 0 01-.052.008c-.013.005-.026.012-.044.017a.085.085 0 01-.035-.008h-.078a.184.184 0 00-.053.008.16.16 0 00-.043.009c-.012-.005-.023-.012-.035-.018a.027.027 0 01-.018-.008c-.005-.005-.014-.009-.026-.009-.005-.005-.014-.009-.026-.009a.132.132 0 00-.061-.017.089.089 0 00-.026-.009H5.53a.085.085 0 01-.035-.008c-.012-.006-.02-.006-.026 0a.026.026 0 01-.026-.018c-.012 0-.02-.003-.026-.008h-.044a.086.086 0 01-.026-.01h-.044a.086.086 0 00-.034-.008h-.035c-.006-.005-.014-.009-.027-.009a.089.089 0 01-.026-.008c-.005 0-.014-.006-.026-.018-.012 0-.02-.003-.026-.008-.005-.006-.012-.01-.017-.01a.086.086 0 01-.035-.008.163.163 0 01-.044-.035.256.256 0 01-.044-.026.163.163 0 01-.043-.034h-.018a.317.317 0 01-.043-.035.086.086 0 01-.035-.009c-.005-.005-.014-.009-.026-.009-.006 0-.014-.005-.026-.017-.013 0-.021-.004-.027-.009-.005-.005-.014-.009-.026-.009a.084.084 0 01-.017-.026H4.71a.083.083 0 00-.017-.026c-.005-.005-.014-.008-.026-.008a.089.089 0 00-.026-.01.089.089 0 00-.027-.008.048.048 0 01-.026-.026c-.012 0-.02-.003-.026-.009a.028.028 0 01-.009-.017l-.017-.017-.018-.018a.084.084 0 01-.026-.017c-.005-.005-.014-.005-.026 0a.048.048 0 00-.026-.026.089.089 0 01-.026-.009.026.026 0 01-.026-.017h-.01a.312.312 0 00-.034-.044.325.325 0 01-.044-.035c-.005-.005-.014-.008-.026-.008a.084.084 0 00-.017-.027C4.25 12.002 4.243 12 4.23 12c-.006-.006-.01-.012-.01-.018l-.017-.017a.085.085 0 01-.017-.026c-.012 0-.021-.004-.026-.009a.083.083 0 01-.026-.017.086.086 0 01-.027-.009l-.008-.009a.318.318 0 00-.035-.043.622.622 0 01-.079-.096l-.035-.035a.318.318 0 01-.034-.043.084.084 0 01-.027-.018c-.005 0-.012-.003-.017-.008a.089.089 0 00-.026-.009l-.018-.017a.084.084 0 00-.017-.027l-.018-.017-.017-.017-.018-.018a.026.026 0 01-.026-.017l-.017-.018c-.012 0-.021-.003-.026-.008-.006-.005-.012-.009-.018-.009a.319.319 0 01-.035-.043l-.052-.053-.035-.034a.318.318 0 00-.043-.035.1.1 0 01-.044-.026.622.622 0 00-.052-.061.112.112 0 00-.027-.035.312.312 0 00-.034-.043l-.018-.018a.314.314 0 01-.035-.044c-.012 0-.02-.003-.026-.008-.005-.005-.009-.012-.009-.018-.012 0-.02-.003-.026-.008-.005-.005-.014-.009-.026-.009a.352.352 0 00-.026-.035.318.318 0 00-.035-.043l-.018-.018c-.005-.012-.012-.017-.017-.017a.084.084 0 01-.017-.026l-.018-.018a.084.084 0 01-.026-.017c-.005 0-.009-.003-.009-.009a.089.089 0 00-.026-.008.048.048 0 00-.026-.027c-.012 0-.021-.003-.026-.008-.006-.005-.014-.009-.026-.009-.006-.005-.014-.009-.027-.009l-.06-.078a1.595 1.595 0 00-.14-.148.511.511 0 00-.07-.043.318.318 0 00-.035-.044.048.048 0 01-.026-.026.084.084 0 00-.026-.017.084.084 0 00-.018-.026c-.012 0-.02-.004-.026-.01-.005-.004-.014-.008-.026-.008a.318.318 0 01-.035-.043.115.115 0 01-.026-.035l-.018-.018-.017-.017a.085.085 0 00-.017-.026c-.006-.005-.013-.009-.018-.009 0-.017-.003-.03-.009-.035a.084.084 0 00-.026-.06l-.035-.053a.114.114 0 01-.026-.034.318.318 0 01-.035-.044.088.088 0 00-.008-.026.088.088 0 00-.01-.026v-.026c-.004-.006-.008-.018-.008-.035a.114.114 0 01-.026-.035.1.1 0 01-.026-.043.316.316 0 00-.035-.044l-.018-.017-.017-.018a.084.084 0 01-.017-.026.284.284 0 00-.027-.07.796.796 0 00-.06-.139.482.482 0 00-.044-.104.513.513 0 00-.035-.096l-.018-.017a28.668 28.668 0 00-.017-.018.084.084 0 00-.018-.026V9.25a.084.084 0 01-.017-.026.088.088 0 00-.009-.026.189.189 0 00-.008-.035c0-.005.003-.012.008-.017a.084.084 0 00-.017-.026c0-.012-.004-.021-.009-.026-.005-.006-.009-.014-.009-.027V9.04v-.034a.084.084 0 01-.017-.027c0-.005-.004-.012-.009-.017 0-.012-.003-.02-.008-.026-.006-.005-.01-.014-.01-.026a.084.084 0 00-.017-.026 28.668 28.668 0 00-.017-.018V8.84v-.026a.085.085 0 01-.009-.035c0-.012-.003-.02-.009-.026a28.668 28.668 0 00-.017-.017c0-.012-.003-.021-.009-.026l-.017-.018c0-.017-.004-.03-.009-.034 0-.013.004-.018.009-.018a.188.188 0 01-.009-.035.088.088 0 01-.009-.026.259.259 0 01-.026-.043.084.084 0 01-.017-.026c0-.013-.004-.021-.009-.026-.005-.006-.009-.014-.009-.027a.084.084 0 00-.017-.026c.005 0 .005-.003 0-.008a.188.188 0 01-.009-.035.462.462 0 01-.035-.113c-.005-.023-.012-.049-.017-.079a.283.283 0 00-.009-.06.214.214 0 01-.009-.061c-.005-.006-.008-.013-.008-.018-.006-.012-.013-.022-.018-.035 0-.005.004-.008.009-.008-.005-.013-.012-.023-.017-.035v-.061a.644.644 0 01-.018-.148v-.104c-.005-.023-.012-.053-.017-.087a.114.114 0 01-.027-.035c-.005-.005-.008-.012-.008-.018-.005-.005-.005-.012 0-.017v-.035c-.005-.005-.009-.014-.009-.026 0-.04-.003-.083-.009-.13 0-.013.004-.023.009-.035 0-.018.005-.032.017-.044a.16.16 0 01.01-.043.088.088 0 01-.01-.026v-.035a.265.265 0 01.018-.078.085.085 0 01-.009-.035c.005-.018.012-.032.018-.044.005-.017.012-.031.017-.043a.107.107 0 00.009-.044c.005-.012.012-.026.017-.043a.084.084 0 01.018-.026.182.182 0 00.008-.053.156.156 0 000-.07.13.13 0 00.018-.06.188.188 0 01-.009-.035v-.026-.044a.183.183 0 01.026-.052c.013-.04.023-.082.035-.122l.018-.078a.207.207 0 00.017-.078.183.183 0 00.026-.052c.005-.018.012-.035.018-.053l.017-.034V6.02a.183.183 0 00.026-.052.183.183 0 01.026-.052.347.347 0 00.01-.079c0-.022.004-.047.017-.07a.085.085 0 01-.01-.034.346.346 0 00.01-.078c.017-.03.038-.066.06-.113a.373.373 0 00.062-.14.764.764 0 00.008-.113.107.107 0 01.018-.043l.017-.052a.3.3 0 01.018-.053v-.034c0-.013.005-.023.017-.035a.086.086 0 01-.008-.035.183.183 0 00.026-.052.084.084 0 01.017-.026c.005-.018.012-.035.018-.053v-.034a.084.084 0 01.017-.027l.018-.052.034-.052a.084.084 0 00.018-.026c0-.005.003-.009.009-.009.005-.017.012-.031.017-.043l.017-.052a.259.259 0 00.027-.044.1.1 0 01.026-.043c0-.013.005-.027.017-.044.005 0 .005-.003 0-.009.012-.012.018-.022.018-.034a.159.159 0 00.008-.044.085.085 0 00.035-.052c.006 0 .006-.004 0-.009.013-.012.018-.02.018-.026.03-.035.057-.07.087-.104a.317.317 0 01.035-.044c.012-.005.017-.017.017-.035a.084.084 0 00.026-.017c.006-.012.013-.026.018-.044.005-.012.012-.026.017-.043.053-.064.102-.134.149-.209.197-.226.418-.444.663-.653.396-.33.81-.596 1.247-.8.005-.005.014-.009.026-.009zm.208 3.81c0-.017.006-.026.018-.026a.258.258 0 01.044-.06.308.308 0 01.087-.044.175.175 0 01.06-.026c0-.018.01-.03.027-.035 0-.012.003-.021.009-.026a.058.058 0 00.043-.018c.013-.005.026-.012.044-.017.012 0 .02-.005.026-.017.012-.018.018-.03.018-.035 0-.005.003-.009.008-.009a.258.258 0 01.026-.043l.027-.01V5.77a.09.09 0 00.017-.035l.026-.026a.767.767 0 01.079-.052.537.537 0 00.13-.148.481.481 0 01.08-.105.886.886 0 00.086-.078V5.3l.018-.017c0-.013.005-.021.017-.027a.026.026 0 01.026-.017l.035-.035a.088.088 0 00.026-.008c0-.013.01-.021.027-.027.005-.005.008-.013.008-.026v-.034c.006 0 .009-.004.009-.01.012-.011.017-.02.017-.025a.345.345 0 00.035-.026l.088-.087.148-.148a.782.782 0 01.13-.122.23.23 0 00.053-.087l.009-.009c0-.012.005-.02.017-.026 0-.012.004-.02.009-.026.012-.005.02-.017.026-.035.005 0 .014-.005.026-.017.018-.012.03-.018.035-.018 0-.012.004-.017.009-.017a.185.185 0 01.07-.052.587.587 0 01.183-.165.058.058 0 00.043-.018.048.048 0 00.027-.026.084.084 0 00.026-.017c0-.013.003-.021.009-.027l.026-.017c.04.017.078.031.113.044.04.022.082.038.122.043a.09.09 0 01.053.017c.005 0 .012.004.017.01a.24.24 0 00.07.06c.04.017.073.03.096.035a.106.106 0 00.06.026.632.632 0 00.053.06c.023.018.044.032.061.044a.082.082 0 00.061.044v.035c0 .012.004.02.009.026l.009.026.017.009v.026c.018.017.026.031.026.043.006 0 .014.005.026.018.006 0 .013.008.018.026a.939.939 0 00.078.087c.03.034.07.075.123.122.057.034.116.066.174.095.005.018.012.026.017.026.088.075.175.13.262.166.075.047.154.095.236.148.022.022.04.047.052.07.082.121.174.23.28.33.104.075.205.144.304.209a.337.337 0 00.061.06c.058.04.126.074.201.096.04.03.084.047.13.052a.259.259 0 01.045.027c.005.034.017.057.034.07.105.098.206.194.306.286.04.047.082.079.122.096v.078c0 .065-.004.134-.009.21l-.017.017a.13.13 0 01-.035.052.13.13 0 00-.035.052h-.026a.175.175 0 01-.026.06c-.006 0-.01.01-.01.027v.009a.05.05 0 01-.034.034v.027l-.018.026c0 .005-.003.008-.008.008a.188.188 0 00-.009.035v.026c-.012 0-.026.009-.044.026 0 .013-.003.018-.008.018-.013.012-.021.017-.026.017l-.01.018c-.011.005-.017.017-.017.034v.027c-.017.005-.03.013-.035.026a.24.24 0 01-.07.06c-.017.023-.034.039-.052.044a.384.384 0 01-.052.044.114.114 0 01-.026.034c-.005 0-.009.009-.009.026-.017 0-.026.006-.026.018l-.009.017c-.012.018-.017.03-.017.035-.058.04-.114.087-.166.14-.04.064-.1.133-.174.208a.34.34 0 00-.096.104v.027c-.013 0-.018.005-.018.017 0 .005-.003.012-.009.017v.044c-.017.005-.026.012-.026.017-.012 0-.017.009-.017.026-.012 0-.023.006-.035.018v.017a.088.088 0 00-.009.026c-.012.013-.017.021-.017.026v.027c-.005.005-.009.013-.009.026v.026H8.74c-.012.022-.02.035-.026.035-.005.005-.009.017-.009.034-.012 0-.02.004-.026.01v.016c-.012.018-.017.03-.017.035v.035c-.006 0-.013.005-.018.017v.01c-.012.017-.017.029-.017.034-.005 0-.009.014-.009.043a.16.16 0 00-.044.01.088.088 0 01-.008.025c-.006.005-.009.014-.009.026l-.017.01c-.006 0-.01.004-.01.016-.011.006-.017.018-.017.035-.005.005-.012.009-.017.009v.017a.908.908 0 00-.14.13.313.313 0 00-.06.097.765.765 0 01-.053.078v.009a.05.05 0 01-.035.034v.027c-.005 0-.014.008-.026.026l-.026.017a.028.028 0 00-.018.009c0 .017-.008.03-.026.035 0 .012-.005.02-.017.026-.006.005-.009.014-.009.026v.035h-.009a.048.048 0 00-.026.026v.008a.342.342 0 00-.035.026v.018H8a.09.09 0 00-.035.017c-.012 0-.021.009-.026.026a.088.088 0 00-.009.026.583.583 0 00-.122.07 1.881 1.881 0 01-.288.235.956.956 0 00-.174.122c-.006.012-.018.02-.035.026-.006 0-.014.005-.027.017a.026.026 0 01-.026.018.084.084 0 01-.017.026.183.183 0 01-.052.026l-.01.009-.017.026h-.043c-.018-.018-.032-.026-.044-.026a.086.086 0 00-.009-.035c0-.005-.008-.014-.026-.026 0-.013-.003-.018-.008-.018-.013-.012-.021-.017-.027-.017a.51.51 0 01-.078-.026.108.108 0 00-.044-.018.113.113 0 00-.035-.026h-.026a.682.682 0 01-.087-.043c-.017-.005-.026-.012-.026-.018-.005 0-.014-.008-.026-.026-.018-.012-.032-.017-.044-.017l-.026-.018a.1.1 0 01-.026-.043l-.018-.035-.008-.009a.106.106 0 00-.062-.026c-.017-.005-.026-.014-.026-.026a.544.544 0 00-.087-.07.85.85 0 00-.096-.139 1.304 1.304 0 01-.087-.13.083.083 0 01-.035-.044.12.12 0 00-.052-.017.083.083 0 01-.035-.043.342.342 0 00-.035-.027c0-.005-.009-.008-.026-.008 0-.018-.004-.026-.009-.026v-.01a257.32 257.32 0 00-.052-.051.343.343 0 01-.027-.035.246.246 0 00-.052-.052V9.11c-.005-.012-.012-.017-.017-.017-.03-.006-.058-.013-.088-.018l-.026-.026c-.017-.012-.03-.023-.035-.035a.058.058 0 00-.043-.017c-.005-.018-.012-.026-.018-.026v-.009c-.03-.005-.055-.026-.078-.06h-.07c-.017-.006-.026-.018-.026-.036a.026.026 0 01-.026-.017.205.205 0 01-.061-.035l-.01-.009a.258.258 0 01-.025-.043c-.012 0-.018-.005-.018-.017-.012-.013-.031-.018-.06-.018a.455.455 0 01-.07-.096.687.687 0 01-.096-.095.69.69 0 00-.07-.061.38.38 0 01-.079-.13c-.012-.006-.017-.018-.017-.035V8.3c-.023-.017-.035-.029-.035-.034h-.009a.259.259 0 00-.043-.026 1.893 1.893 0 00-.149-.122.522.522 0 01-.096-.104.167.167 0 01-.06-.044.048.048 0 00-.027-.026.319.319 0 01-.044-.035.09.09 0 01-.052-.017c-.005-.018-.014-.03-.026-.035-.005-.005-.009-.014-.009-.026-.012 0-.02-.009-.026-.026a.084.084 0 01-.026-.018.13.13 0 00-.035-.052c-.023 0-.04-.012-.052-.035-.006-.012-.018-.02-.035-.026-.005-.012-.018-.02-.035-.026-.012-.005-.026-.022-.044-.052a.187.187 0 01-.035-.06 1.053 1.053 0 00-.087-.123 125.55 125.55 0 00-.035-.035.088.088 0 00-.008-.026v-.026V7.3v-.043a.285.285 0 00.008-.079v-.07c.012-.011.018-.029.018-.051.005-.006.008-.014.008-.027.006 0 .014-.005.027-.017v-.017a.188.188 0 00.008-.035c0-.005.006-.014.018-.026V6.9l.017-.026c0-.005.005-.014.018-.026.005-.005.008-.018.008-.035a.086.086 0 01.035-.009l.026-.026c0-.012.006-.017.018-.017a.084.084 0 01.026-.018.083.083 0 01.035-.043v-.018a.026.026 0 01.026-.017c0-.005.004-.014.009-.026a.258.258 0 01.06-.044l.053-.052a.705.705 0 00.096-.096l.009-.017c.012-.005.017-.014.017-.026a.088.088 0 00.027-.009c0-.005.003-.014.008-.026l.035-.035a.048.048 0 00.026-.026c.013 0 .021-.003.027-.008a.05.05 0 01.034-.035.163.163 0 00.035-.044v-.026c.012 0 .018-.005.018-.017.005 0 .008-.005.008-.018z" fill="#F4D233"/></svg>